<?xml version="1.0" encoding="UTF-8"?>
<svg width="896px" height="896px" viewBox="0 0 896 896" version="1.1" xmlns="http://www.w3.org/2000/svg" xmlns:xlink="http://www.w3.org/1999/xlink">
    <!-- Generator: Sketch 41.2 (35397) - http://www.bohemiancoding.com/sketch -->
    <title>Shape</title>
    <desc>Created with Sketch.</desc>
    <defs></defs>
    <g id="Page-1" stroke="none" stroke-width="1" fill="none" fill-rule="evenodd">
        <path d="M256,192 C291.346,192 320,220.654 320,256 C320,291.346 291.346,320 256,320 C220.654,320 192,291.346 192,256 C192,220.654 220.654,192 256,192 Z M896,704 C896,810.039 810.039,896 704,896 L256,896 L448,704 L529.128,704 C551.26,742.258 592.622,768 640,768 C710.692,768 768,710.692 768,640 C768,569.308 710.692,512 640,512 C592.623,512 551.26,537.742 529.128,576 L384,576 L92.044,867.956 C36.845,834.232 0,773.42 0,704 L0,192 C0,85.961 85.961,0 192,0 L192,145.128 C153.742,167.26 128,208.623 128,256 C128,326.692 185.308,384 256,384 C303.276,384 344.56,358.367 366.727,320.244 L529.143,320.025 C551.279,358.269 592.633,384 640,384 C710.692,384 768,326.692 768,256 C768,185.308 710.692,128 640,128 C592.612,128 551.242,153.753 529.113,192.025 L367.016,192.244 C355.77,172.704 339.513,156.416 320,145.128 L320,0 L704,0 C810.039,0 896,85.961 896,192 L896,704 Z M576,640 C576,604.654 604.654,576 640,576 C675.346,576 704,604.654 704,640 C704,675.346 675.346,704 640,704 C604.654,704 576,675.346 576,640 Z M576,256 C576,220.654 604.654,192 640,192 C675.346,192 704,220.654 704,256 C704,291.346 675.346,320 640,320 C604.654,320 576,291.346 576,256 Z" id="Shape" fill="#3676CB"></path>
    </g>
</svg>